<svg xmlns="http://www.w3.org/2000/svg" viewBox="0 0 522.1 132.1"><path d="M28.7 27.9l-1.2 7h-5.4l-4.9 28H8l4.9-28H7.5l1.2-7h20zm23 0L45.5 63h-9.1L39 48.2h-2.7l-2.6 14.7h-9.1l6.2-35.1h9.1l-2.2 12.5h2.7l2.2-12.5h9.1zm3.7 0h15.2l-1.2 7h-6.1l-1.2 6.6h5.7l-1.2 6.7h-5.7l-1.4 7.7h6.7l-1.2 7H49.2l6.2-35zm8.8-3.9L62 26.4h-4l4.7-5.2h4.1l2.6 5.2h-4L64.2 24zm4-1.8l.1-.7c.1-.5.8-1.3 2-2.5.3-.2.5-.5.7-.8s.3-.6.4-.8c.1-.4.1-.6 0-.8 0-.1-.3-.2-.6-.2-.8 0-1.2.4-1.4 1.2l-.1.8h-2.4l.2-1c.1-.8.6-1.5 1.3-2.1.8-.7 1.8-1 2.9-1 1 0 1.8.2 2.3.7s.7 1.2.6 2.2c-.2.9-.8 1.7-1.9 2.5s-1.8 1.6-1.9 2.4h-2.2zm24.5 5.7l-1.2 7h-5.4l-4.9 28H72l4.9-28h-5.4l1.2-7h20zm23.1 0L109.6 63h-9.1l2.6-14.7h-2.7L97.8 63h-9.1l6.2-35.1h9.1l-2.2 12.5h2.7l2.2-12.5h9.1zm19.4 0l-1 35.1h-9.3l.7-6.3h-3.3l-1.7 6.3h-9.4L122 27.9h13.2zm-8.8 22.5c.2-4 .6-8.9 1.2-14.7-2.1 6.7-3.5 11.6-4.3 14.7h3.1zm32-2l-1.6 7.5c-.4 1.5-1.2 2.8-2.3 4s-2.4 2.1-4 2.8c-1.6.6-3.4 1-5.4 1-1.9 0-3.5-.3-4.9-.9s-2.4-1.5-3.1-2.8c-.7-1.2-1-2.6-.9-4s.4-4 1.1-7.6l1.1-6 1.6-7.5c.4-1.5 1.2-2.8 2.3-4s2.4-2.1 4-2.8c1.6-.6 3.4-1 5.4-1 1.9 0 3.5.3 4.9.9s2.4 1.5 3.1 2.8c.7 1.2 1 2.6.9 4s-.4 4-1.1 7.6l-1.1 6zm-7.1-11.5c.3-1.6.4-2.7.3-3.1-.1-.5-.4-.7-1-.7-.5 0-.9.2-1.2.6s-.6 1.5-1 3.3l-2.9 16.4c-.4 2-.5 3.3-.4 3.8s.4.7 1 .7 1.1-.3 1.3-.8c.3-.5.6-1.9 1-3.9l2.9-16.3z" fill="#254892"/><path d="M165.1 34.6c18.5 2.6 32.8 14.4 34.3 28.9h2c-1.5-15.6-16.8-28.3-36.5-31 .2.7.2 1.4.2 2.1zm-16.1 63h0c-18.7-2.9-33-15.2-33.9-30.1h-2c.8 15.7 15.6 28.7 35.1 31.9.2-.7.5-1.3.8-1.8z"/><path d="M156.8 84l3.8-14.7h15.2c1.7 0 2.9.2 3.4.5.6.3 1.5 1.3 3 3 1.3 1.5 2 2.7 2.2 3.6.1.6.1 1.6-.1 2.9l-.8 4.5c-.3 1.7-.7 2.9-1.1 3.5-.5.7-1.8 2.1-4.1 4.2l-12.5 11.6h14.5l-1.5 8.3h-27.1l1.4-7.8c.3-1.5.6-2.6.9-3.1.3-.6 1.3-1.6 2.9-3L169.5 86c1.2-1.1 2-1.9 2.2-2.3.3-.4.5-1.1.6-2 .3-1.6.4-2.7.3-3.2-.2-.8-.8-1.2-1.9-1.3-.9 0-1.5 0-1.7.1-.4.2-.7.7-1 1.5l-1.9 5h-9.3zm38-14.8h18.6l-3.9 22.1h3.5l-1.4 7.8h-3.5l-.7 4.2h1.9l-1.5 8.3h-15.5l1.5-8.3h2.3l.7-4.2H180l1.5-8.5 13.3-21.4zm-2.9 22.3h6.4l2.8-16.1-9.2 16.1zm50.7 11.7h2.3l-3.7 8.3h-14.4L242 77.4h-3c-1.2 0-2.1.2-2.6.6s-1 1.3-1.6 2.6L233 85h-8.1l4-15.7h26c1.3 0 1.8.5 1.6 1.5-.1.3-.4 1.1-.9 2.3l-13 30.1z" fill="#c62127"/><path d="M227.9 68.5l-17.2 43.6 8.4-19.5 8.8-24.1z" fill="#b7b7b7"/><path d="M267.8 65.9L0 66.1c15.8 1.4 111.4.8 111.4.8l156.4-1z"/><path d="M182.2 0l-52.1 132.1c9.2-19.6 25.1-61.3 25.1-61.3s26.7-66.2 27-70.8z"/><path d="M118.6 23.3h1.5c10.7-5.3 23.5-8.4 37.3-8.4 36.4 0 66.1 21.6 67.9 48.7h5.6c-1.7-30.2-34-54.4-73.5-54.4-18.5 0-35.5 5.3-48.4 14.1h9.6zm67 93.8h-21.9l-6.4.2c-36.8 0-66.9-22.2-67.9-49.8h-5.6c1 30.7 33.6 55.5 73.6 55.5 11.7 0 22.7-2.1 32.6-5.9h-4.4zm42.3-48.6l-17.2 43.6 8.4-19.5 8.8-24.1z"/><linearGradient id="A" gradientUnits="userSpaceOnUse" x1="243.408" y1="90.688" x2="514.472" y2="90.688"><stop offset="0" stop-color="#254892"/><stop offset="1" stop-color="#2a3375" stop-opacity="0"/></linearGradient><path d="M258.8 69.9l-13.4 31.5h2.2l-4.2 10.1h271.1V69.9z" fill="url(#A)"/><path d="M289.6 93.5h3l-.3 3.9c-.3 1.5-1.4 2.5-3.1 2.9-1.4.3-3.8.4-7.2.4-4.5 0-7.5-.2-9.1-.5s-2.6-1.1-3.1-2.4-.8-3.6-.8-7c0-3.2.2-5.5.6-6.9.5-1.8 1.7-2.8 3.8-3.1 1.9-.3 4.6-.4 8.3-.4 3.5 0 5.9.2 7.5.5.8.2 1.5.5 2 1 .6.5.9 1.1 1.1 1.8.1.6.2 1.8.2 3.6h-2.9v-.8c0-.9-.1-1.6-.3-2s-.5-.7-1-.8c-1-.4-3.2-.6-6.8-.6l-5.8.2c-1.3.1-2.1.3-2.5.6s-.6.9-.8 1.9-.3 2.3-.3 4l.1 3.2.2 2.7c.1.7.3 1.3.7 1.6.3.3.9.5 1.7.6 1.5.2 3.6.2 6.4.2l3.3-.1 2.6-.2c.7-.1 1.2-.2 1.6-.4.3-.2.5-.5.7-.8.1-.5.1-1.5.2-3.1zm5-13.1h2.6v8.1h-.2c.4-.8 1.2-1.4 2.2-1.7s2.7-.5 5-.5c1.9 0 3.4.1 4.4.3s1.8.6 2.4 1.2c.5.5.8 1.1 1 1.8s.2 1.9.2 3.6v7.3h-2.6v-6.7l-.1-3c-.1-.5-.3-1-.6-1.4s-.8-.7-1.6-.9-1.8-.3-3.3-.3c-1.7 0-2.9.1-3.9.3s-1.6.6-2 1.1c-.4.4-.6.8-.7 1.3s-.2 1.4-.2 2.7v6.7h-2.6V80.4zm20 1h2.6v2.9h-2.6v-2.9zm0 5h2.6v14.1h-2.6V86.4zm7.9 4.5h-2.7v-.7c0-1.5.6-2.5 1.7-3.1 1.1-.5 3.2-.8 6.3-.8 2.4 0 4.1.1 5.2.3s1.9.7 2.5 1.3c.5.5.8 1.1 1 1.8s.2 1.8.2 3.5v7.4H334V99h.2c-.5.7-1.2 1.2-2 1.5-.8.2-2.3.3-4.4.3-2.4 0-4.1-.1-5.1-.2s-1.7-.4-2.2-.8-.9-.8-1.1-1.3-.3-1.2-.3-2.1c0-1.1.2-1.9.5-2.5a2.94 2.94 0 0 1 1.5-1.4c.8-.3 2.5-.5 5.3-.5 2.9 0 4.7.1 5.7.3s1.6.6 2.1 1.2h-.2v-1.3c0-1.2-.2-2.1-.6-2.6-.4-.4-.9-.7-1.7-.9s-2-.2-3.8-.2c-2.3 0-3.8.1-4.4.4s-1 .8-1 1.7v.3zm5.4 3.4l-3.7.1c-.7.1-1.2.2-1.5.3-.5.3-.8.9-.8 1.8s.3 1.4.9 1.7c.5.2 2.3.4 5.5.4 2.3 0 3.8-.1 4.5-.4s1-.9 1-1.7-.4-1.4-1.2-1.7c-.7-.4-2.3-.5-4.7-.5zm18.1 1.2h2.8v.5c0 .7.1 1.3.2 1.5s.4.5.9.7c.6.2 2.4.3 5.4.3l3.9-.1c.7-.1 1.2-.2 1.5-.5.4-.3.6-.8.6-1.4 0-.8-.2-1.3-.7-1.6s-1.4-.4-2.7-.4c-.4 0-2.5 0-6.3-.1a14.36 14.36 0 0 1-2.4-.2c-.6-.1-1.1-.4-1.6-.7-.8-.6-1.2-1.6-1.2-3 0-1.5.5-2.6 1.4-3.2.5-.4 1.4-.6 2.5-.8s2.8-.2 4.8-.2c2.3 0 4.1.1 5.2.4s2 .7 2.5 1.4c.3.3.4.7.5 1 .1.4.1 1 .1 1.9h-2.7c0-.9-.1-1.5-.4-1.7-.3-.3-.8-.5-1.7-.6-.8-.1-2.1-.2-3.7-.2-2.9 0-4.7.2-5.3.6-.4.3-.6.8-.6 1.5s.2 1.2.7 1.4 1.5.3 3.2.3l6.4.1c1.6.1 2.8.4 3.6 1.1.7.7 1.1 1.7 1.1 3.1 0 .8-.1 1.5-.4 2.1a3.04 3.04 0 0 1-1.2 1.3c-.5.3-1.3.5-2.4.7l-4.7.2c-2.3 0-4-.1-5.1-.2s-2-.4-2.5-.8c-.6-.4-.9-.8-1.2-1.3-.2-.5-.3-1.2-.3-2.1-.2-.3-.2-.6-.2-1zm35.1.5h2.7c0 1.8-.6 3-1.8 3.7s-3.2 1-6 1c-2.3 0-4.1-.1-5.3-.3s-2.2-.5-2.8-.9c-1.4-1-2.2-3-2.2-6 0-2.1.3-3.6.9-4.7.6-1 1.4-1.7 2.5-2.1s2.9-.5 5.4-.5c2.4 0 4.2.1 5.3.4s2 .8 2.6 1.5c.5.6.9 1.3 1.1 2.1s.3 2.1.3 3.8h-15.4c.1 1.6.4 2.7 1 3.3.4.4 1 .7 1.9.8s2.4.2 4.4.2c1.5 0 2.7-.1 3.4-.2s1.2-.4 1.5-.7c.2-.1.4-.6.5-1.4zm-.1-4c0-1.2-.3-2.1-1-2.6-.4-.3-1.1-.6-1.9-.7s-2-.2-3.6-.2c-1.4 0-2.5.1-3.2.2s-1.3.3-1.7.6c-.7.5-1 1.4-1.1 2.7H381zm-7.5-8.8h-2.3v-.8c0-.4 0-.7.1-1 .1-.2.2-.5.4-.7.3-.3.6-.5 1-.6s1-.1 1.8-.1l2.3.1c.6.2 1 .5 1.3 1a3.73 3.73 0 0 1 .2 1.2c0 .3 0 .6-.1.8s-.2.5-.5.7c-.2.2-.4.3-.7.4a3.73 3.73 0 0 1-1.2.2c-.2 0-.4.1-.5.1-.1.1 0 0 .3-.2v.8h-2.3c0-.8.1-1.3.2-1.6.2-.3.4-.5.7-.7.3-.1.7-.2 1.2-.3.2 0 .4-.1.5-.1h.1V82c0-.2 0-.3.1-.3-.2 0-.7-.1-1.5-.1-.7 0-1.1-.1-1.3-.2.3-.3.4-.3.4-.1s-.2 1.1-.2 1.9z" fill="#fff"/><path d="M408.7 82.6V81l2.6-1.9v3.5h1.5v2.2h-1.5v15.8h-2.6v-1.8h.2c-.5.8-1.2 1.3-2.1 1.6s-2.4.4-4.7.4c-1.9 0-3.3-.1-4.2-.2s-1.8-.4-2.4-.8c-.9-.5-1.6-1.3-2-2.3s-.6-2.3-.6-4c0-2 .3-3.5.8-4.5.7-1.1 1.5-1.9 2.7-2.2 1.1-.3 3.2-.5 6.2-.5 1.9 0 3.3.1 4.2.4s1.5.7 2 1.4h-.2v-3.3h-5.8v-2.2h5.9zm-6.1 5.9c-1.6 0-2.8.1-3.6.2s-1.4.3-1.8.6c-.5.3-.8.8-1.1 1.5s-.3 1.6-.3 2.9c0 2.1.4 3.5 1.1 4.1s2.4.9 5 .9c1.7 0 2.9-.1 3.8-.2.8-.1 1.4-.3 1.8-.6.5-.3.8-.8 1.1-1.5s.3-1.5.3-2.7c0-1.4-.1-2.4-.4-3.1s-.6-1.2-1.2-1.5c-.8-.4-2.3-.6-4.7-.6zm14.1 2.4H414v-.7c0-1.5.6-2.5 1.7-3.1 1.1-.5 3.2-.8 6.3-.8 2.4 0 4.1.1 5.2.3s1.9.7 2.5 1.3c.5.5.8 1.1 1 1.8s.2 1.8.2 3.5v7.4h-2.6V99h.2c-.5.7-1.2 1.2-2 1.5-.8.2-2.3.3-4.4.3-2.4 0-4.1-.1-5.1-.2s-1.7-.4-2.2-.8-.9-.8-1.1-1.3-.3-1.2-.3-2.1c0-1.1.2-1.9.5-2.5a2.94 2.94 0 0 1 1.5-1.4c.8-.3 2.5-.5 5.3-.5 2.9 0 4.7.1 5.7.3s1.6.6 2.1 1.2h-.2v-1.3c0-1.2-.2-2.1-.6-2.6-.4-.4-.9-.7-1.7-.9s-2-.2-3.8-.2c-2.3 0-3.8.1-4.4.4s-1 .8-1 1.7c-.1 0-.1.1-.1.3zm5.4 3.4l-3.7.1c-.7.1-1.2.2-1.5.3-.5.3-.8.9-.8 1.8s.3 1.4.9 1.7c.5.2 2.3.4 5.5.4 2.3 0 3.8-.1 4.5-.4s1-.9 1-1.7-.4-1.4-1.2-1.7c-.7-.4-2.3-.5-4.7-.5zm11-7.9h2.6v1.4c.4-.5 1-.9 1.8-1.2s2-.4 3.7-.4c2.3 0 4 .2 5 .5s1.8.9 2.2 1.6c.3-.7 1-1.2 2-1.6s2.5-.5 4.5-.5c1.9 0 3.4.1 4.3.4 1 .3 1.8.7 2.4 1.4.5.5.8 1.1.9 1.7s.2 1.8.2 3.4v7.4H460v-7.9c0-1.7-.2-2.7-.7-3.2-.6-.6-2.1-.9-4.5-.9-1.4 0-2.4.1-3.1.3s-1.2.5-1.6.9-.6 1-.7 1.7-.2 1.9-.2 3.6v5.6h-2.6v-7.9c0-1-.1-1.7-.2-2.1-.1-.5-.3-.8-.6-1.1-.7-.6-2.2-1-4.5-1-1.4 0-2.4.1-3.1.3s-1.3.5-1.6.9-.6.9-.7 1.6-.2 1.9-.2 3.7v5.6h-2.6V86.4zm39.3 0h2.6v1.4c.4-.5 1-.9 1.8-1.2s2-.4 3.7-.4c2.3 0 4 .2 5 .5s1.8.9 2.2 1.6c.3-.7 1-1.2 2-1.6s2.5-.5 4.5-.5c1.9 0 3.4.1 4.3.4 1 .3 1.8.7 2.4 1.4.5.5.8 1.1.9 1.7s.2 1.8.2 3.4v7.4h-2.6v-7.9c0-1.7-.2-2.7-.7-3.2-.6-.6-2.1-.9-4.5-.9-1.4 0-2.4.1-3.1.3s-1.2.5-1.6.9-.6 1-.7 1.7-.2 1.9-.2 3.6v5.6H486v-7.9c0-1-.1-1.7-.2-2.1-.1-.5-.3-.8-.6-1.1-.7-.6-2.2-1-4.5-1-1.4 0-2.4.1-3.1.3s-1.3.5-1.6.9-.6.9-.7 1.6-.2 1.9-.2 3.7v5.6h-2.6V86.4zm47 9.6h2.7c0 1.8-.6 3-1.8 3.7s-3.2 1-6 1c-2.3 0-4.1-.1-5.3-.3s-2.2-.5-2.8-.9c-1.4-1-2.2-3-2.2-6 0-2.1.3-3.6.9-4.7.6-1 1.4-1.7 2.5-2.1s2.9-.5 5.4-.5c2.4 0 4.2.1 5.3.4s2 .8 2.6 1.5c.5.6.9 1.3 1.1 2.1s.3 2.1.3 3.8h-15.4c.1 1.6.4 2.7 1 3.3.4.4 1 .7 1.9.8s2.4.2 4.4.2c1.5 0 2.7-.1 3.4-.2s1.2-.4 1.5-.7c.3-.1.4-.6.5-1.4zm-.1-4c0-1.2-.3-2.1-1-2.6-.4-.3-1.1-.6-1.9-.7s-2-.2-3.6-.2c-1.4 0-2.5.1-3.2.2s-1.3.3-1.7.6c-.7.5-1 1.4-1.1 2.7h12.5zM508 85l-1-1.9 6.1-3.7 6.1 3.7-1 1.9-5.2-2.6-5 2.6z"/></svg>